<?xml version="1.0" encoding="UTF-8" standalone="no"?>
<svg
   xmlns:dc="http://purl.org/dc/elements/1.1/"
   xmlns:cc="http://creativecommons.org/ns#"
   xmlns:rdf="http://www.w3.org/1999/02/22-rdf-syntax-ns#"
   xmlns:svg="http://www.w3.org/2000/svg"
   xmlns="http://www.w3.org/2000/svg"
   xmlns:sodipodi="http://sodipodi.sourceforge.net/DTD/sodipodi-0.dtd"
   xmlns:inkscape="http://www.inkscape.org/namespaces/inkscape"
   version="1"
   width="252.87254"
   height="87.029037"
   viewBox="0 0 252.87254 87.029037"
   id="svg2"
   inkscape:version="0.48.4 r9939"
   sodipodi:docname="lg_ibps.svg">
  <metadata
     id="metadata20">
    <rdf:RDF>
      <cc:Work
         rdf:about="">
        <dc:format>image/svg+xml</dc:format>
        <dc:type
           rdf:resource="http://purl.org/dc/dcmitype/StillImage" />
        <dc:title></dc:title>
      </cc:Work>
    </rdf:RDF>
  </metadata>
  <defs
     id="defs18" />
  <sodipodi:namedview
     pagecolor="#ffffff"
     bordercolor="#666666"
     borderopacity="1"
     objecttolerance="10"
     gridtolerance="10"
     guidetolerance="10"
     inkscape:pageopacity="0"
     inkscape:pageshadow="2"
     inkscape:window-width="1873"
     inkscape:window-height="1176"
     id="namedview16"
     showgrid="false"
     fit-margin-top="0"
     fit-margin-left="0"
     fit-margin-right="0"
     fit-margin-bottom="0"
     inkscape:zoom="0.73833333"
     inkscape:cx="300"
     inkscape:cy="103.39296"
     inkscape:window-x="47"
     inkscape:window-y="24"
     inkscape:window-maximized="1"
     inkscape:current-layer="svg2" />
  <g
     id="g4"
     transform="matrix(0.4226906,0,0,0.4226906,0,4.0000001e-5)"
     style="fill:#ffffff">
    <path
       d="M 230.566,54.985 V 5.181 l 6.309,-2.988 h 0.332 v 49.805 l -6.309,2.988 h -0.332 z m 19.922,0 V 19.458 c 0,-4.781 1.494,-8.71 4.482,-11.787 3.143,-3.209 7.238,-4.814 12.285,-4.814 4.98,0 9.075,1.605 12.285,4.814 2.988,2.967 4.482,6.896 4.482,11.787 v 32.539 l -6.309,2.988 h -0.332 V 19.458 c 0,-2.966 -0.797,-5.367 -2.391,-7.205 -1.971,-2.279 -4.549,-3.42 -7.736,-3.42 -3.187,0 -5.767,1.141 -7.736,3.42 -1.594,1.838 -2.391,4.239 -2.391,7.205 v 32.539 l -6.309,2.988 h -0.33 z m 78.991,-17 c 0,4.516 -1.483,8.356 -4.449,11.521 -3.033,3.21 -7.128,4.814 -12.285,4.814 -5.158,0 -9.253,-1.604 -12.285,-4.814 -2.988,-3.165 -4.482,-6.873 -4.482,-11.123 l 6.309,-2.988 h 0.332 v 2.723 c 0,2.701 0.797,4.97 2.391,6.807 1.97,2.28 4.549,3.42 7.736,3.42 3.165,0 5.744,-1.14 7.736,-3.42 1.571,-1.793 2.357,-4.084 2.357,-6.873 0,-2.634 -0.643,-4.703 -1.926,-6.209 -1.771,-2.08 -4.494,-3.121 -8.168,-3.121 -4.029,0 -7.516,-1.328 -10.459,-3.984 -2.214,-1.992 -3.32,-4.881 -3.32,-8.666 0,-4.449 1.372,-7.791 4.117,-10.027 2.611,-2.125 5.832,-3.188 9.662,-3.188 3.829,0 7.05,1.063 9.662,3.188 2.744,2.236 4.117,5.302 4.117,9.197 l -6.309,2.988 h -0.332 v -2.656 c 0,-2.523 -0.72,-4.404 -2.158,-5.645 -1.395,-1.217 -3.055,-1.826 -4.98,-1.826 -2.147,0 -3.874,0.676 -5.18,2.025 -1.307,1.351 -1.959,3.166 -1.959,5.445 0,2.191 0.498,3.841 1.494,4.947 1.328,1.483 3.209,2.225 5.645,2.225 5.356,0 9.451,1.262 12.285,3.785 2.965,2.635 4.449,6.453 4.449,11.455 z m 14.742,17 V 9.563 H 330.01 V 9.231 l 2.689,-5.711 h 32.373 v 0.332 l -2.689,5.711 h -11.521 v 42.434 l -6.309,2.988 h -0.332 z m 24.338,0 V 5.181 l 6.309,-2.988 h 0.332 v 49.805 l -6.309,2.988 h -0.332 z m 24.337,0 V 9.563 H 378.685 V 9.231 l 2.689,-5.711 h 32.373 v 0.332 l -2.689,5.711 h -11.521 v 42.434 l -6.309,2.988 h -0.332 z M 450.77,2.192 V 37.72 c 0,4.781 -1.494,8.711 -4.482,11.787 -3.144,3.21 -7.238,4.814 -12.285,4.814 -4.98,0 -9.076,-1.604 -12.285,-4.814 -2.988,-2.966 -4.482,-6.895 -4.482,-11.787 V 5.181 l 6.309,-2.988 h 0.332 V 37.72 c 0,2.967 0.797,5.368 2.391,7.205 1.97,2.28 4.549,3.42 7.736,3.42 3.187,0 5.766,-1.14 7.736,-3.42 1.594,-1.837 2.391,-4.238 2.391,-7.205 V 5.181 l 6.309,-2.988 h 0.33 z m 17.697,52.793 V 9.563 H 454.256 V 9.231 l 2.689,-5.711 h 32.373 v 0.332 l -2.689,5.711 h -11.521 v 42.434 l -6.309,2.988 h -0.332 z m 53.219,-1.328 V 5.181 l 3.52,-1.66 h 12.584 c 5.047,0 9.142,1.605 12.285,4.814 2.988,3.033 4.482,6.962 4.482,11.787 v 16.934 c 0,4.804 -1.494,8.732 -4.482,11.787 -3.144,3.21 -7.238,4.814 -12.285,4.814 h -16.104 z m 6.64,-5.976 h 9.463 c 3.188,0 5.766,-1.14 7.736,-3.42 1.594,-1.837 2.391,-4.238 2.391,-7.205 V 20.122 c 0,-2.966 -0.797,-5.367 -2.391,-7.205 -1.971,-2.279 -4.549,-3.42 -7.736,-3.42 h -9.463 v 38.184 z m 39.512,5.976 V 5.181 l 3.52,-1.66 h 21.051 v 0.332 l -2.689,5.711 h -15.24 v 16.004 h 17.93 V 25.9 l -2.689,5.711 h -15.24 v 16.004 h 23.475 v 0.332 l -2.689,5.711 h -27.429 z m -335.514,84 V 76.349 l 4.451,-2.1 h 15.915 c 4.73,0 8.664,1.288 11.8,3.863 3.723,3.023 5.585,6.901 5.585,11.632 0,4.815 -2.128,8.818 -6.383,12.01 1.371,0.588 2.729,1.47 4.073,2.646 4.087,3.724 6.131,8.343 6.131,13.857 0,5.543 -1.792,10.093 -5.375,13.647 -3.836,3.836 -9.112,5.753 -15.831,5.753 h -20.366 z m 8.399,-38.885 h 11.968 c 2.799,0 5.053,-0.909 6.761,-2.729 1.512,-1.623 2.268,-3.737 2.268,-6.341 0,-2.127 -0.91,-4.045 -2.729,-5.753 -1.624,-1.428 -3.724,-2.142 -6.299,-2.142 h -11.968 v 16.965 z m 0,31.327 h 11.968 c 4.227,0 7.586,-1.329 10.078,-3.989 1.819,-1.932 2.729,-4.479 2.729,-7.643 0,-3.275 -0.966,-6.032 -2.897,-8.272 -2.1,-2.575 -5.403,-3.863 -9.91,-3.863 h -11.968 v 23.767 z m 49.131,9.238 V 76.349 l 7.979,-3.779 h 0.42 v 62.988 l -7.979,3.779 h -0.42 z m 25.195,-21.836 V 94.405 c 0,-6.074 1.89,-11.044 5.669,-14.907 3.975,-4.059 9.154,-6.089 15.537,-6.089 6.383,0 11.562,2.03 15.537,6.089 3.779,3.836 5.669,8.805 5.669,14.907 v 23.096 c 0,6.075 -1.89,11.044 -5.669,14.907 -3.976,4.06 -9.154,6.089 -15.537,6.089 -6.383,0 -11.563,-2.029 -15.537,-6.089 -3.78,-3.863 -5.669,-8.832 -5.669,-14.907 z m 8.398,0 c 0,3.752 1.008,6.789 3.023,9.112 2.491,2.884 5.753,4.325 9.784,4.325 4.031,0 7.292,-1.441 9.784,-4.325 2.016,-2.323 3.023,-5.36 3.023,-9.112 V 94.405 c 0,-3.751 -1.008,-6.788 -3.023,-9.112 -2.492,-2.883 -5.753,-4.325 -9.784,-4.325 -4.031,0 -7.293,1.442 -9.784,4.325 -2.016,2.324 -3.023,5.361 -3.023,9.112 v 23.096 z m 50.811,20.156 V 76.349 l 7.979,-3.779 h 0.42 v 57.445 h 28.765 v 0.42 l -3.401,7.223 H 374.258 z M 414.99,117.501 V 94.405 c 0,-6.074 1.89,-11.044 5.669,-14.907 3.975,-4.059 9.154,-6.089 15.537,-6.089 6.383,0 11.562,2.03 15.537,6.089 3.779,3.836 5.669,8.805 5.669,14.907 v 23.096 c 0,6.075 -1.89,11.044 -5.669,14.907 -3.976,4.06 -9.154,6.089 -15.537,6.089 -6.383,0 -11.563,-2.029 -15.537,-6.089 -3.779,-3.863 -5.669,-8.832 -5.669,-14.907 z m 8.399,0 c 0,3.752 1.008,6.789 3.023,9.112 2.491,2.884 5.753,4.325 9.784,4.325 4.031,0 7.292,-1.441 9.784,-4.325 2.016,-2.323 3.023,-5.36 3.023,-9.112 V 94.405 c 0,-3.751 -1.008,-6.788 -3.023,-9.112 -2.492,-2.883 -5.753,-4.325 -9.784,-4.325 -4.031,0 -7.293,1.442 -9.784,4.325 -2.016,2.324 -3.023,5.361 -3.023,9.112 v 23.096 z m 93.222,-15.369 v 15.369 c 0,6.075 -1.89,11.044 -5.669,14.907 -3.976,4.06 -9.154,6.089 -15.537,6.089 -6.383,0 -11.563,-2.029 -15.537,-6.089 -3.779,-3.863 -5.669,-8.832 -5.669,-14.907 V 94.405 c 0,-6.074 1.89,-11.044 5.669,-14.907 3.975,-4.059 9.154,-6.089 15.537,-6.089 6.606,0 11.793,2.03 15.558,6.089 3.766,4.06 5.648,8.749 5.648,14.067 l -7.979,3.779 h -0.42 v -2.939 c 0,-3.751 -1.008,-6.788 -3.023,-9.112 -2.492,-2.883 -5.753,-4.325 -9.784,-4.325 -4.031,0 -7.293,1.442 -9.784,4.325 -2.016,2.324 -3.023,5.361 -3.023,9.112 v 23.096 c 0,3.752 1.008,6.789 3.023,9.112 2.491,2.884 5.753,4.325 9.784,4.325 4.031,0 7.292,-1.441 9.784,-4.325 2.016,-2.323 3.023,-5.081 3.023,-8.272 v -8.566 H 493.6 v -0.42 l 3.401,-7.223 h 19.61 z m 16.797,37.205 V 76.349 l 7.979,-3.779 h 0.42 v 62.988 l -7.979,3.779 h -0.42 z m 25.196,-1.68 V 76.349 l 4.451,-2.1 h 26.623 v 0.42 l -3.401,7.223 h -19.274 v 20.24 h 22.676 v 0.42 l -3.401,7.223 h -19.274 v 20.24 h 29.688 v 0.42 l -3.401,7.223 h -34.687 z m -329.209,65.094 v -41.016 l 2.898,-1.367 h 10.363 c 4.156,0 7.528,1.322 10.117,3.965 2.461,2.516 3.691,5.752 3.691,9.707 0,3.975 -1.23,7.21 -3.691,9.707 -2.607,2.644 -5.979,3.965 -10.117,3.965 h -7.793 v 12.578 l -5.195,2.461 h -0.273 z m 5.468,-19.961 h 7.793 c 2.388,0 4.512,-0.938 6.371,-2.816 1.313,-1.33 1.969,-3.309 1.969,-5.934 0,-2.442 -0.656,-4.42 -1.969,-5.934 -1.623,-1.877 -3.746,-2.816 -6.371,-2.816 h -7.793 v 17.5 z m 29.805,19.961 v -29.258 c 0,-3.938 1.23,-7.173 3.691,-9.707 2.588,-2.643 5.961,-3.965 10.117,-3.965 4.083,0 7.455,1.322 10.117,3.965 2.461,2.443 3.691,5.679 3.691,9.707 v 26.797 l -5.195,2.461 h -0.273 v -19.25 h -16.68 v 16.789 l -5.195,2.461 h -0.273 z m 5.469,-24.227 h 16.68 v -5.031 c 0,-2.442 -0.656,-4.42 -1.969,-5.934 -1.623,-1.877 -3.746,-2.816 -6.371,-2.816 -2.625,0 -4.749,0.939 -6.371,2.816 -1.313,1.514 -1.969,3.491 -1.969,5.934 v 5.031 z m 33.086,24.227 v -41.016 l 2.898,-1.367 h 10.363 c 4.156,0 7.528,1.322 10.117,3.965 2.461,2.516 3.691,5.752 3.691,9.707 0,3.976 -1.231,7.213 -3.695,9.712 -1.459,1.478 -3.165,2.544 -5.118,3.2 l 9.47,13.529 -4.813,2.27 h -0.274 l -10.526,-15.039 h -6.645 v 12.578 l -5.195,2.461 h -0.273 z m 5.468,-19.961 h 7.793 c 2.388,0 4.512,-0.938 6.371,-2.816 1.313,-1.33 1.969,-3.309 1.969,-5.934 0,-2.442 -0.656,-4.42 -1.969,-5.934 -1.623,-1.877 -3.746,-2.816 -6.371,-2.816 h -7.793 v 17.5 z m 31.829,19.961 v -41.016 l 5.195,-2.461 h 0.273 v 41.016 l -5.195,2.461 h -0.273 z m 42.902,-14 c 0,3.719 -1.222,6.882 -3.664,9.488 -2.498,2.644 -5.87,3.965 -10.117,3.965 -4.248,0 -7.62,-1.321 -10.117,-3.965 -2.461,-2.606 -3.691,-5.66 -3.691,-9.16 l 5.195,-2.461 h 0.273 v 2.242 c 0,2.225 0.656,4.093 1.969,5.605 1.622,1.878 3.746,2.816 6.371,2.816 2.606,0 4.73,-0.938 6.371,-2.816 1.294,-1.477 1.941,-3.363 1.941,-5.66 0,-2.169 -0.529,-3.873 -1.586,-5.113 -1.459,-1.713 -3.701,-2.57 -6.727,-2.57 -3.318,0 -6.189,-1.094 -8.613,-3.281 -1.823,-1.641 -2.734,-4.02 -2.734,-7.137 0,-3.664 1.13,-6.416 3.391,-8.258 2.15,-1.75 4.803,-2.625 7.957,-2.625 3.153,0 5.806,0.875 7.957,2.625 2.26,1.842 3.391,4.366 3.391,7.574 l -5.195,2.461 h -0.273 v -2.188 c 0,-2.078 -0.593,-3.627 -1.777,-4.648 -1.148,-1.002 -2.516,-1.504 -4.102,-1.504 -1.769,0 -3.19,0.557 -4.266,1.668 -1.076,1.112 -1.613,2.607 -1.613,4.484 0,1.805 0.41,3.163 1.23,4.074 1.094,1.222 2.643,1.832 4.648,1.832 4.411,0 7.783,1.039 10.117,3.117 2.442,2.171 3.664,5.316 3.664,9.435 z m 93.555,0 c 0,3.719 -1.222,6.882 -3.664,9.488 -2.498,2.644 -5.87,3.965 -10.117,3.965 -4.248,0 -7.62,-1.321 -10.117,-3.965 -2.461,-2.606 -3.691,-5.66 -3.691,-9.16 l 5.195,-2.461 h 0.273 v 2.242 c 0,2.225 0.656,4.093 1.969,5.605 1.622,1.878 3.746,2.816 6.371,2.816 2.606,0 4.73,-0.938 6.371,-2.816 1.294,-1.477 1.941,-3.363 1.941,-5.66 0,-2.169 -0.529,-3.873 -1.586,-5.113 -1.459,-1.713 -3.701,-2.57 -6.727,-2.57 -3.318,0 -6.189,-1.094 -8.613,-3.281 -1.823,-1.641 -2.734,-4.02 -2.734,-7.137 0,-3.664 1.13,-6.416 3.391,-8.258 2.15,-1.75 4.803,-2.625 7.957,-2.625 3.153,0 5.806,0.875 7.957,2.625 2.26,1.842 3.391,4.366 3.391,7.574 l -5.195,2.461 h -0.273 v -2.188 c 0,-2.078 -0.593,-3.627 -1.777,-4.648 -1.148,-1.002 -2.516,-1.504 -4.102,-1.504 -1.769,0 -3.19,0.557 -4.266,1.668 -1.076,1.112 -1.613,2.607 -1.613,4.484 0,1.805 0.41,3.163 1.23,4.074 1.094,1.222 2.643,1.832 4.648,1.832 4.411,0 7.783,1.039 10.117,3.117 2.442,2.171 3.664,5.316 3.664,9.435 z m 9.871,12.906 v -39.922 l 2.898,-1.367 h 17.336 v 0.273 l -2.215,4.703 h -12.551 v 13.18 h 14.766 v 0.273 l -2.215,4.703 h -12.551 v 13.18 h 19.332 v 0.273 l -2.215,4.703 h -22.585 z m 31.636,1.094 v -41.016 l 5.195,-2.461 h 0.273 v 41.016 l -5.195,2.461 h -0.273 z m 16.407,0 v -29.258 c 0,-3.938 1.23,-7.173 3.691,-9.707 2.588,-2.643 5.961,-3.965 10.117,-3.965 4.102,0 7.474,1.322 10.117,3.965 2.461,2.443 3.691,5.679 3.691,9.707 v 26.797 l -5.195,2.461 h -0.273 v -29.258 c 0,-2.442 -0.656,-4.42 -1.969,-5.934 -1.623,-1.877 -3.746,-2.816 -6.371,-2.816 -2.625,0 -4.749,0.939 -6.371,2.816 -1.313,1.514 -1.969,3.491 -1.969,5.934 v 26.797 l -5.195,2.461 h -0.273 z m 38.554,-1.094 v -39.922 l 2.898,-1.367 h 17.336 v 0.273 l -2.215,4.703 h -12.551 v 13.18 h 14.766 v 0.273 l -2.215,4.703 h -12.551 v 13.18 h 19.332 v 0.273 l -2.215,4.703 h -22.585 z"
       id="path6"
       inkscape:connector-curvature="0" />
  </g>
  <rect
     x="0.52455908"
     y="0.49966642"
     width="79.755379"
     height="85.738983"
     id="rect8"
     style="fill:#18385f" />
  <rect
     x="54.522438"
     y="31.878084"
     width="9.6563663"
     height="9.4048662"
     id="rect10"
     style="fill:#99ca3c" />
  <rect
     x="171.60774"
     y="72.033722"
     width="9.6563663"
     height="9.4048662"
     id="rect12"
     style="fill:#99ca3c" />
  <path
     d="M 13.490593,4.0000001e-5 C 12.530663,1.56315 11.353892,3.12288 10.467087,4.68641 8.5544124,8.05991 6.8471651,11.39325 5.3166024,14.64585 3.7864624,17.89845 2.4431517,21.08258 1.2955467,24.21472 0.77690533,25.63116 0.4408663,26.98842 0,28.38034 v 36.58175 c 0.66446963,1.09731 1.2807525,2.22082 2.1265564,3.15708 1.0254474,1.13619 2.1003496,2.03652 3.2230159,2.70226 1.1226662,0.66447 2.2690031,1.10703 3.4893109,1.30104 1.2203078,0.19486 2.5035968,0.1471 3.8211228,-0.12976 1.317527,-0.27687 2.671828,-0.78283 4.086996,-1.52972 1.415168,-0.74816 2.936431,-1.76262 4.518985,-3.02646 1.582554,-1.26385 3.234006,-2.77624 4.984367,-4.55703 1.750362,-1.77995 3.597943,-3.82155 5.516113,-6.11845 1.917747,-2.2969 3.895516,-4.83516 5.980649,-7.64816 l 6.545787,-8.75519 c 2.897967,-3.93314 5.480184,-7.10416 7.809209,-9.53633 1.16409,-1.21608 2.267312,-2.2504 3.289378,-3.09198 1.022066,-0.84073 1.977769,-1.4866 2.857811,-1.95283 0.879619,-0.4658 1.752475,-0.79297 2.591939,-0.94344 0.839041,-0.1509 1.659906,-0.13231 2.458368,0.0325 0.799308,0.16485 1.568183,0.49667 2.326067,0.97642 0.758307,0.47975 1.508583,1.09265 2.226734,1.88774 0.787895,0.8737 1.408405,1.86364 1.927469,2.96179 0.518641,1.09815 0.913857,2.32226 1.162822,3.6457 0.248965,1.3226 0.352947,2.74834 0.332235,4.29539 -0.02071,1.54789 -0.174994,3.20822 -0.465383,4.97971 -0.290388,1.77235 -0.68349,3.625 -1.229184,5.53302 -0.546116,1.90803 -1.22538,3.8803 -2.027224,5.92359 -1.60242,4.08657 -3.721791,8.42169 -6.346699,13.05057 -1.7846,3.14693 -3.659233,6.16537 -5.648838,9.04812 -1.989182,2.88275 -4.085727,5.64841 -6.279914,8.26656 -0.452279,0.54062 -0.994591,1.05842 -1.462087,1.59481 h 12.261409 c 0.587118,-0.87751 1.220731,-1.71317 1.794322,-2.60377 1.954099,-3.03239 3.847752,-6.13155 5.648837,-9.30807 2.16164,-3.81183 4.089954,-7.50868 5.814955,-11.0652 1.725,-3.55736 3.231047,-6.98285 4.518985,-10.28491 1.063067,-2.72508 1.892809,-5.29208 2.658301,-7.84387 V 14.38501 C 79.621806,12.67734 78.541409,11.09014 77.256007,9.66609 76.096144,8.38111 74.911342,7.36116 73.667364,6.57453 72.423385,5.78748 71.140942,5.23629 69.812848,4.94717 68.484754,4.65763 67.105092,4.60775 65.69246,4.81656 c -1.412209,0.20881 -2.856543,0.69279 -4.352868,1.39953 -1.496325,0.70716 -3.067466,1.65949 -4.718495,2.89712 -1.65103,1.23764 -3.377298,2.75595 -5.183455,4.52364 -1.806157,1.76769 -3.688398,3.78773 -5.648837,6.0859 -1.960862,2.29859 -3.998653,4.85206 -6.11422,7.68113 l -6.379669,8.625 c -3.004485,4.01049 -5.671662,7.23773 -7.974481,9.69864 -1.151832,1.23003 -2.213631,2.24871 -3.190046,3.09156 -0.976415,0.84284 -1.857725,1.49759 -2.658301,1.95241 -0.800999,0.45566 -1.599884,0.77859 -2.359036,0.94344 -0.759153,0.16612 -1.475613,0.18894 -2.192919,0.0651 -0.717729,-0.12385 -1.417704,-0.40029 -2.093587,-0.81326 -0.675882,-0.41382 -1.32598,-0.95697 -1.960439,-1.66033 -0.724069,-0.80227 -1.3225986,-1.73303 -1.7943213,-2.76651 -0.4713,-1.03348 -0.8441131,-2.18447 -1.0634895,-3.45 -0.2193765,-1.26469 -0.299265,-2.63674 -0.2658724,-4.13265 0.033392,-1.49674 0.2126133,-3.12157 0.4987749,-4.84953 0.2857388,-1.72796 0.6750369,-3.50114 1.1962144,-5.33816 0.5207548,-1.83659 1.1708529,-3.71756 1.9270469,-5.66278 1.512809,-3.89087 3.494805,-8.0083 5.948102,-12.33496 1.612564,-2.84428 3.291491,-5.56049 5.0837,-8.16934 C 23.018885,1.69711 23.712097,0.87793 24.356278,0 H 13.490593 z"
     id="path14"
     inkscape:connector-curvature="0"
     style="fill:#ffffff" />
  <g
     id="g2997"
     transform="matrix(0.4226906,0,0,0.4226906,0,4.0000001e-5)"
     style="fill:#ffffff">
    <path
       id="path2999"
       d="M 230.566,54.985 V 5.181 l 6.309,-2.988 h 0.332 v 49.805 l -6.309,2.988 h -0.332 z m 19.922,0 V 19.458 c 0,-4.781 1.494,-8.71 4.482,-11.787 3.143,-3.209 7.238,-4.814 12.285,-4.814 4.98,0 9.075,1.605 12.285,4.814 2.988,2.967 4.482,6.896 4.482,11.787 v 32.539 l -6.309,2.988 h -0.332 V 19.458 c 0,-2.966 -0.797,-5.367 -2.391,-7.205 -1.971,-2.279 -4.549,-3.42 -7.736,-3.42 -3.187,0 -5.767,1.141 -7.736,3.42 -1.594,1.838 -2.391,4.239 -2.391,7.205 v 32.539 l -6.309,2.988 h -0.33 z m 78.991,-17 c 0,4.516 -1.483,8.356 -4.449,11.521 -3.033,3.21 -7.128,4.814 -12.285,4.814 -5.158,0 -9.253,-1.604 -12.285,-4.814 -2.988,-3.165 -4.482,-6.873 -4.482,-11.123 l 6.309,-2.988 h 0.332 v 2.723 c 0,2.701 0.797,4.97 2.391,6.807 1.97,2.28 4.549,3.42 7.736,3.42 3.165,0 5.744,-1.14 7.736,-3.42 1.571,-1.793 2.357,-4.084 2.357,-6.873 0,-2.634 -0.643,-4.703 -1.926,-6.209 -1.771,-2.08 -4.494,-3.121 -8.168,-3.121 -4.029,0 -7.516,-1.328 -10.459,-3.984 -2.214,-1.992 -3.32,-4.881 -3.32,-8.666 0,-4.449 1.372,-7.791 4.117,-10.027 2.611,-2.125 5.832,-3.188 9.662,-3.188 3.829,0 7.05,1.063 9.662,3.188 2.744,2.236 4.117,5.302 4.117,9.197 l -6.309,2.988 h -0.332 v -2.656 c 0,-2.523 -0.72,-4.404 -2.158,-5.645 -1.395,-1.217 -3.055,-1.826 -4.98,-1.826 -2.147,0 -3.874,0.676 -5.18,2.025 -1.307,1.351 -1.959,3.166 -1.959,5.445 0,2.191 0.498,3.841 1.494,4.947 1.328,1.483 3.209,2.225 5.645,2.225 5.356,0 9.451,1.262 12.285,3.785 2.965,2.635 4.449,6.453 4.449,11.455 z m 14.742,17 V 9.563 H 330.01 V 9.231 l 2.689,-5.711 h 32.373 v 0.332 l -2.689,5.711 h -11.521 v 42.434 l -6.309,2.988 h -0.332 z m 24.338,0 V 5.181 l 6.309,-2.988 h 0.332 v 49.805 l -6.309,2.988 h -0.332 z m 24.337,0 V 9.563 H 378.685 V 9.231 l 2.689,-5.711 h 32.373 v 0.332 l -2.689,5.711 h -11.521 v 42.434 l -6.309,2.988 h -0.332 z M 450.77,2.192 V 37.72 c 0,4.781 -1.494,8.711 -4.482,11.787 -3.144,3.21 -7.238,4.814 -12.285,4.814 -4.98,0 -9.076,-1.604 -12.285,-4.814 -2.988,-2.966 -4.482,-6.895 -4.482,-11.787 V 5.181 l 6.309,-2.988 h 0.332 V 37.72 c 0,2.967 0.797,5.368 2.391,7.205 1.97,2.28 4.549,3.42 7.736,3.42 3.187,0 5.766,-1.14 7.736,-3.42 1.594,-1.837 2.391,-4.238 2.391,-7.205 V 5.181 l 6.309,-2.988 h 0.33 z m 17.697,52.793 V 9.563 H 454.256 V 9.231 l 2.689,-5.711 h 32.373 v 0.332 l -2.689,5.711 h -11.521 v 42.434 l -6.309,2.988 h -0.332 z m 53.219,-1.328 V 5.181 l 3.52,-1.66 h 12.584 c 5.047,0 9.142,1.605 12.285,4.814 2.988,3.033 4.482,6.962 4.482,11.787 v 16.934 c 0,4.804 -1.494,8.732 -4.482,11.787 -3.144,3.21 -7.238,4.814 -12.285,4.814 h -16.104 z m 6.64,-5.976 h 9.463 c 3.188,0 5.766,-1.14 7.736,-3.42 1.594,-1.837 2.391,-4.238 2.391,-7.205 V 20.122 c 0,-2.966 -0.797,-5.367 -2.391,-7.205 -1.971,-2.279 -4.549,-3.42 -7.736,-3.42 h -9.463 v 38.184 z m 39.512,5.976 V 5.181 l 3.52,-1.66 h 21.051 v 0.332 l -2.689,5.711 h -15.24 v 16.004 h 17.93 V 25.9 l -2.689,5.711 h -15.24 v 16.004 h 23.475 v 0.332 l -2.689,5.711 h -27.429 z m -335.514,84 V 76.349 l 4.451,-2.1 h 15.915 c 4.73,0 8.664,1.288 11.8,3.863 3.723,3.023 5.585,6.901 5.585,11.632 0,4.815 -2.128,8.818 -6.383,12.01 1.371,0.588 2.729,1.47 4.073,2.646 4.087,3.724 6.131,8.343 6.131,13.857 0,5.543 -1.792,10.093 -5.375,13.647 -3.836,3.836 -9.112,5.753 -15.831,5.753 h -20.366 z m 8.399,-38.885 h 11.968 c 2.799,0 5.053,-0.909 6.761,-2.729 1.512,-1.623 2.268,-3.737 2.268,-6.341 0,-2.127 -0.91,-4.045 -2.729,-5.753 -1.624,-1.428 -3.724,-2.142 -6.299,-2.142 h -11.968 v 16.965 z m 0,31.327 h 11.968 c 4.227,0 7.586,-1.329 10.078,-3.989 1.819,-1.932 2.729,-4.479 2.729,-7.643 0,-3.275 -0.966,-6.032 -2.897,-8.272 -2.1,-2.575 -5.403,-3.863 -9.91,-3.863 h -11.968 v 23.767 z m 49.131,9.238 V 76.349 l 7.979,-3.779 h 0.42 v 62.988 l -7.979,3.779 h -0.42 z m 25.195,-21.836 V 94.405 c 0,-6.074 1.89,-11.044 5.669,-14.907 3.975,-4.059 9.154,-6.089 15.537,-6.089 6.383,0 11.562,2.03 15.537,6.089 3.779,3.836 5.669,8.805 5.669,14.907 v 23.096 c 0,6.075 -1.89,11.044 -5.669,14.907 -3.976,4.06 -9.154,6.089 -15.537,6.089 -6.383,0 -11.563,-2.029 -15.537,-6.089 -3.78,-3.863 -5.669,-8.832 -5.669,-14.907 z m 8.398,0 c 0,3.752 1.008,6.789 3.023,9.112 2.491,2.884 5.753,4.325 9.784,4.325 4.031,0 7.292,-1.441 9.784,-4.325 2.016,-2.323 3.023,-5.36 3.023,-9.112 V 94.405 c 0,-3.751 -1.008,-6.788 -3.023,-9.112 -2.492,-2.883 -5.753,-4.325 -9.784,-4.325 -4.031,0 -7.293,1.442 -9.784,4.325 -2.016,2.324 -3.023,5.361 -3.023,9.112 v 23.096 z m 50.811,20.156 V 76.349 l 7.979,-3.779 h 0.42 v 57.445 h 28.765 v 0.42 l -3.401,7.223 H 374.258 z M 414.99,117.501 V 94.405 c 0,-6.074 1.89,-11.044 5.669,-14.907 3.975,-4.059 9.154,-6.089 15.537,-6.089 6.383,0 11.562,2.03 15.537,6.089 3.779,3.836 5.669,8.805 5.669,14.907 v 23.096 c 0,6.075 -1.89,11.044 -5.669,14.907 -3.976,4.06 -9.154,6.089 -15.537,6.089 -6.383,0 -11.563,-2.029 -15.537,-6.089 -3.779,-3.863 -5.669,-8.832 -5.669,-14.907 z m 8.399,0 c 0,3.752 1.008,6.789 3.023,9.112 2.491,2.884 5.753,4.325 9.784,4.325 4.031,0 7.292,-1.441 9.784,-4.325 2.016,-2.323 3.023,-5.36 3.023,-9.112 V 94.405 c 0,-3.751 -1.008,-6.788 -3.023,-9.112 -2.492,-2.883 -5.753,-4.325 -9.784,-4.325 -4.031,0 -7.293,1.442 -9.784,4.325 -2.016,2.324 -3.023,5.361 -3.023,9.112 v 23.096 z m 93.222,-15.369 v 15.369 c 0,6.075 -1.89,11.044 -5.669,14.907 -3.976,4.06 -9.154,6.089 -15.537,6.089 -6.383,0 -11.563,-2.029 -15.537,-6.089 -3.779,-3.863 -5.669,-8.832 -5.669,-14.907 V 94.405 c 0,-6.074 1.89,-11.044 5.669,-14.907 3.975,-4.059 9.154,-6.089 15.537,-6.089 6.606,0 11.793,2.03 15.558,6.089 3.766,4.06 5.648,8.749 5.648,14.067 l -7.979,3.779 h -0.42 v -2.939 c 0,-3.751 -1.008,-6.788 -3.023,-9.112 -2.492,-2.883 -5.753,-4.325 -9.784,-4.325 -4.031,0 -7.293,1.442 -9.784,4.325 -2.016,2.324 -3.023,5.361 -3.023,9.112 v 23.096 c 0,3.752 1.008,6.789 3.023,9.112 2.491,2.884 5.753,4.325 9.784,4.325 4.031,0 7.292,-1.441 9.784,-4.325 2.016,-2.323 3.023,-5.081 3.023,-8.272 v -8.566 H 493.6 v -0.42 l 3.401,-7.223 h 19.61 z m 16.797,37.205 V 76.349 l 7.979,-3.779 h 0.42 v 62.988 l -7.979,3.779 h -0.42 z m 25.196,-1.68 V 76.349 l 4.451,-2.1 h 26.623 v 0.42 l -3.401,7.223 h -19.274 v 20.24 h 22.676 v 0.42 l -3.401,7.223 h -19.274 v 20.24 h 29.688 v 0.42 l -3.401,7.223 h -34.687 z m -329.209,65.094 v -41.016 l 2.898,-1.367 h 10.363 c 4.156,0 7.528,1.322 10.117,3.965 2.461,2.516 3.691,5.752 3.691,9.707 0,3.975 -1.23,7.21 -3.691,9.707 -2.607,2.644 -5.979,3.965 -10.117,3.965 h -7.793 v 12.578 l -5.195,2.461 h -0.273 z m 5.468,-19.961 h 7.793 c 2.388,0 4.512,-0.938 6.371,-2.816 1.313,-1.33 1.969,-3.309 1.969,-5.934 0,-2.442 -0.656,-4.42 -1.969,-5.934 -1.623,-1.877 -3.746,-2.816 -6.371,-2.816 h -7.793 v 17.5 z m 29.805,19.961 v -29.258 c 0,-3.938 1.23,-7.173 3.691,-9.707 2.588,-2.643 5.961,-3.965 10.117,-3.965 4.083,0 7.455,1.322 10.117,3.965 2.461,2.443 3.691,5.679 3.691,9.707 v 26.797 l -5.195,2.461 h -0.273 v -19.25 h -16.68 v 16.789 l -5.195,2.461 h -0.273 z m 5.469,-24.227 h 16.68 v -5.031 c 0,-2.442 -0.656,-4.42 -1.969,-5.934 -1.623,-1.877 -3.746,-2.816 -6.371,-2.816 -2.625,0 -4.749,0.939 -6.371,2.816 -1.313,1.514 -1.969,3.491 -1.969,5.934 v 5.031 z m 33.086,24.227 v -41.016 l 2.898,-1.367 h 10.363 c 4.156,0 7.528,1.322 10.117,3.965 2.461,2.516 3.691,5.752 3.691,9.707 0,3.976 -1.231,7.213 -3.695,9.712 -1.459,1.478 -3.165,2.544 -5.118,3.2 l 9.47,13.529 -4.813,2.27 h -0.274 l -10.526,-15.039 h -6.645 v 12.578 l -5.195,2.461 h -0.273 z m 5.468,-19.961 h 7.793 c 2.388,0 4.512,-0.938 6.371,-2.816 1.313,-1.33 1.969,-3.309 1.969,-5.934 0,-2.442 -0.656,-4.42 -1.969,-5.934 -1.623,-1.877 -3.746,-2.816 -6.371,-2.816 h -7.793 v 17.5 z m 31.829,19.961 v -41.016 l 5.195,-2.461 h 0.273 v 41.016 l -5.195,2.461 h -0.273 z m 42.902,-14 c 0,3.719 -1.222,6.882 -3.664,9.488 -2.498,2.644 -5.87,3.965 -10.117,3.965 -4.248,0 -7.62,-1.321 -10.117,-3.965 -2.461,-2.606 -3.691,-5.66 -3.691,-9.16 l 5.195,-2.461 h 0.273 v 2.242 c 0,2.225 0.656,4.093 1.969,5.605 1.622,1.878 3.746,2.816 6.371,2.816 2.606,0 4.73,-0.938 6.371,-2.816 1.294,-1.477 1.941,-3.363 1.941,-5.66 0,-2.169 -0.529,-3.873 -1.586,-5.113 -1.459,-1.713 -3.701,-2.57 -6.727,-2.57 -3.318,0 -6.189,-1.094 -8.613,-3.281 -1.823,-1.641 -2.734,-4.02 -2.734,-7.137 0,-3.664 1.13,-6.416 3.391,-8.258 2.15,-1.75 4.803,-2.625 7.957,-2.625 3.153,0 5.806,0.875 7.957,2.625 2.26,1.842 3.391,4.366 3.391,7.574 l -5.195,2.461 h -0.273 v -2.188 c 0,-2.078 -0.593,-3.627 -1.777,-4.648 -1.148,-1.002 -2.516,-1.504 -4.102,-1.504 -1.769,0 -3.19,0.557 -4.266,1.668 -1.076,1.112 -1.613,2.607 -1.613,4.484 0,1.805 0.41,3.163 1.23,4.074 1.094,1.222 2.643,1.832 4.648,1.832 4.411,0 7.783,1.039 10.117,3.117 2.442,2.171 3.664,5.316 3.664,9.435 z m 93.555,0 c 0,3.719 -1.222,6.882 -3.664,9.488 -2.498,2.644 -5.87,3.965 -10.117,3.965 -4.248,0 -7.62,-1.321 -10.117,-3.965 -2.461,-2.606 -3.691,-5.66 -3.691,-9.16 l 5.195,-2.461 h 0.273 v 2.242 c 0,2.225 0.656,4.093 1.969,5.605 1.622,1.878 3.746,2.816 6.371,2.816 2.606,0 4.73,-0.938 6.371,-2.816 1.294,-1.477 1.941,-3.363 1.941,-5.66 0,-2.169 -0.529,-3.873 -1.586,-5.113 -1.459,-1.713 -3.701,-2.57 -6.727,-2.57 -3.318,0 -6.189,-1.094 -8.613,-3.281 -1.823,-1.641 -2.734,-4.02 -2.734,-7.137 0,-3.664 1.13,-6.416 3.391,-8.258 2.15,-1.75 4.803,-2.625 7.957,-2.625 3.153,0 5.806,0.875 7.957,2.625 2.26,1.842 3.391,4.366 3.391,7.574 l -5.195,2.461 h -0.273 v -2.188 c 0,-2.078 -0.593,-3.627 -1.777,-4.648 -1.148,-1.002 -2.516,-1.504 -4.102,-1.504 -1.769,0 -3.19,0.557 -4.266,1.668 -1.076,1.112 -1.613,2.607 -1.613,4.484 0,1.805 0.41,3.163 1.23,4.074 1.094,1.222 2.643,1.832 4.648,1.832 4.411,0 7.783,1.039 10.117,3.117 2.442,2.171 3.664,5.316 3.664,9.435 z m 9.871,12.906 v -39.922 l 2.898,-1.367 h 17.336 v 0.273 l -2.215,4.703 h -12.551 v 13.18 h 14.766 v 0.273 l -2.215,4.703 h -12.551 v 13.18 h 19.332 v 0.273 l -2.215,4.703 h -22.585 z m 31.636,1.094 v -41.016 l 5.195,-2.461 h 0.273 v 41.016 l -5.195,2.461 h -0.273 z m 16.407,0 v -29.258 c 0,-3.938 1.23,-7.173 3.691,-9.707 2.588,-2.643 5.961,-3.965 10.117,-3.965 4.102,0 7.474,1.322 10.117,3.965 2.461,2.443 3.691,5.679 3.691,9.707 v 26.797 l -5.195,2.461 h -0.273 v -29.258 c 0,-2.442 -0.656,-4.42 -1.969,-5.934 -1.623,-1.877 -3.746,-2.816 -6.371,-2.816 -2.625,0 -4.749,0.939 -6.371,2.816 -1.313,1.514 -1.969,3.491 -1.969,5.934 v 26.797 l -5.195,2.461 h -0.273 z m 38.554,-1.094 v -39.922 l 2.898,-1.367 h 17.336 v 0.273 l -2.215,4.703 h -12.551 v 13.18 h 14.766 v 0.273 l -2.215,4.703 h -12.551 v 13.18 h 19.332 v 0.273 l -2.215,4.703 h -22.585 z"
       inkscape:connector-curvature="0" />
  </g>
  <rect
     id="rect3001"
     height="85.738983"
     width="79.755379"
     y="0.49966642"
     x="0.52455908"
     style="fill:#18385f" />
  <rect
     id="rect3003"
     height="9.4048662"
     width="9.6563663"
     y="31.878084"
     x="54.522438"
     style="fill:#99ca3c" />
  <rect
     id="rect3005"
     height="9.4048662"
     width="9.6563663"
     y="72.033722"
     x="171.60774"
     style="fill:#99ca3c" />
  <path
     id="path3007"
     d="M 13.490593,4.0000001e-5 C 12.530663,1.56315 11.353892,3.12288 10.467087,4.68641 8.5544124,8.05991 6.8471651,11.39325 5.3166024,14.64585 3.7864624,17.89845 2.4431517,21.08258 1.2955467,24.21472 0.77690533,25.63116 0.4408663,26.98842 0,28.38034 v 36.58175 c 0.66446963,1.09731 1.2807525,2.22082 2.1265564,3.15708 1.0254474,1.13619 2.1003496,2.03652 3.2230159,2.70226 1.1226662,0.66447 2.2690031,1.10703 3.4893109,1.30104 1.2203078,0.19486 2.5035968,0.1471 3.8211228,-0.12976 1.317527,-0.27687 2.671828,-0.78283 4.086996,-1.52972 1.415168,-0.74816 2.936431,-1.76262 4.518985,-3.02646 1.582554,-1.26385 3.234006,-2.77624 4.984367,-4.55703 1.750362,-1.77995 3.597943,-3.82155 5.516113,-6.11845 1.917747,-2.2969 3.895516,-4.83516 5.980649,-7.64816 l 6.545787,-8.75519 c 2.897967,-3.93314 5.480184,-7.10416 7.809209,-9.53633 1.16409,-1.21608 2.267312,-2.2504 3.289378,-3.09198 1.022066,-0.84073 1.977769,-1.4866 2.857811,-1.95283 0.879619,-0.4658 1.752475,-0.79297 2.591939,-0.94344 0.839041,-0.1509 1.659906,-0.13231 2.458368,0.0325 0.799308,0.16485 1.568183,0.49667 2.326067,0.97642 0.758307,0.47975 1.508583,1.09265 2.226734,1.88774 0.787895,0.8737 1.408405,1.86364 1.927469,2.96179 0.518641,1.09815 0.913857,2.32226 1.162822,3.6457 0.248965,1.3226 0.352947,2.74834 0.332235,4.29539 -0.02071,1.54789 -0.174994,3.20822 -0.465383,4.97971 -0.290388,1.77235 -0.68349,3.625 -1.229184,5.53302 -0.546116,1.90803 -1.22538,3.8803 -2.027224,5.92359 -1.60242,4.08657 -3.721791,8.42169 -6.346699,13.05057 -1.7846,3.14693 -3.659233,6.16537 -5.648838,9.04812 -1.989182,2.88275 -4.085727,5.64841 -6.279914,8.26656 -0.452279,0.54062 -0.994591,1.05842 -1.462087,1.59481 h 12.261409 c 0.587118,-0.87751 1.220731,-1.71317 1.794322,-2.60377 1.954099,-3.03239 3.847752,-6.13155 5.648837,-9.30807 2.16164,-3.81183 4.089954,-7.50868 5.814955,-11.0652 1.725,-3.55736 3.231047,-6.98285 4.518985,-10.28491 1.063067,-2.72508 1.892809,-5.29208 2.658301,-7.84387 V 14.38501 C 79.621806,12.67734 78.541409,11.09014 77.256007,9.66609 76.096144,8.38111 74.911342,7.36116 73.667364,6.57453 72.423385,5.78748 71.140942,5.23629 69.812848,4.94717 68.484754,4.65763 67.105092,4.60775 65.69246,4.81656 c -1.412209,0.20881 -2.856543,0.69279 -4.352868,1.39953 -1.496325,0.70716 -3.067466,1.65949 -4.718495,2.89712 -1.65103,1.23764 -3.377298,2.75595 -5.183455,4.52364 -1.806157,1.76769 -3.688398,3.78773 -5.648837,6.0859 -1.960862,2.29859 -3.998653,4.85206 -6.11422,7.68113 l -6.379669,8.625 c -3.004485,4.01049 -5.671662,7.23773 -7.974481,9.69864 -1.151832,1.23003 -2.213631,2.24871 -3.190046,3.09156 -0.976415,0.84284 -1.857725,1.49759 -2.658301,1.95241 -0.800999,0.45566 -1.599884,0.77859 -2.359036,0.94344 -0.759153,0.16612 -1.475613,0.18894 -2.192919,0.0651 -0.717729,-0.12385 -1.417704,-0.40029 -2.093587,-0.81326 -0.675882,-0.41382 -1.32598,-0.95697 -1.960439,-1.66033 -0.724069,-0.80227 -1.3225986,-1.73303 -1.7943213,-2.76651 -0.4713,-1.03348 -0.8441131,-2.18447 -1.0634895,-3.45 -0.2193765,-1.26469 -0.299265,-2.63674 -0.2658724,-4.13265 0.033392,-1.49674 0.2126133,-3.12157 0.4987749,-4.84953 0.2857388,-1.72796 0.6750369,-3.50114 1.1962144,-5.33816 0.5207548,-1.83659 1.1708529,-3.71756 1.9270469,-5.66278 1.512809,-3.89087 3.494805,-8.0083 5.948102,-12.33496 1.612564,-2.84428 3.291491,-5.56049 5.0837,-8.16934 C 23.018885,1.69711 23.712097,0.87793 24.356278,0 H 13.490593 z"
     inkscape:connector-curvature="0"
     style="fill:#ffffff" />
</svg>
