<svg version="1" xmlns="http://www.w3.org/2000/svg" width="600" height="205" viewBox="0 0 600 205"><g fill="#fff"><path d="M230.566 54.985v-49.804l6.309-2.988h.332v49.805l-6.309 2.988h-.332zM250.488 54.985v-35.527c0-4.781 1.494-8.71 4.482-11.787 3.143-3.209 7.238-4.814 12.285-4.814 4.98 0 9.075 1.605 12.285 4.814 2.988 2.967 4.482 6.896 4.482 11.787v32.539l-6.309 2.988h-.332v-35.527c0-2.966-.797-5.367-2.391-7.205-1.971-2.279-4.549-3.42-7.736-3.42s-5.767 1.141-7.736 3.42c-1.594 1.838-2.391 4.239-2.391 7.205v32.539l-6.309 2.988h-.33zM329.479 37.985c0 4.516-1.483 8.356-4.449 11.521-3.033 3.21-7.128 4.814-12.285 4.814-5.158 0-9.253-1.604-12.285-4.814-2.988-3.165-4.482-6.873-4.482-11.123l6.309-2.988h.332v2.723c0 2.701.797 4.97 2.391 6.807 1.97 2.28 4.549 3.42 7.736 3.42 3.165 0 5.744-1.14 7.736-3.42 1.571-1.793 2.357-4.084 2.357-6.873 0-2.634-.643-4.703-1.926-6.209-1.771-2.08-4.494-3.121-8.168-3.121-4.029 0-7.516-1.328-10.459-3.984-2.214-1.992-3.32-4.881-3.32-8.666 0-4.449 1.372-7.791 4.117-10.027 2.611-2.125 5.832-3.188 9.662-3.188 3.829 0 7.05 1.063 9.662 3.188 2.744 2.236 4.117 5.302 4.117 9.197l-6.309 2.988h-.332v-2.656c0-2.523-.72-4.404-2.158-5.645-1.395-1.217-3.055-1.826-4.98-1.826-2.147 0-3.874.676-5.18 2.025-1.307 1.351-1.959 3.166-1.959 5.445 0 2.191.498 3.841 1.494 4.947 1.328 1.483 3.209 2.225 5.645 2.225 5.356 0 9.451 1.262 12.285 3.785 2.965 2.635 4.449 6.453 4.449 11.455zM344.221 54.985v-45.422h-14.211v-.332l2.689-5.711h32.373v.332l-2.689 5.711h-11.521v42.434l-6.309 2.988h-.332zM368.559 54.985v-49.804l6.309-2.988h.332v49.805l-6.309 2.988h-.332zM392.896 54.985v-45.422h-14.211v-.332l2.689-5.711h32.373v.332l-2.689 5.711h-11.521v42.434l-6.309 2.988h-.332zM450.77 2.192v35.528c0 4.781-1.494 8.711-4.482 11.787-3.144 3.21-7.238 4.814-12.285 4.814-4.98 0-9.076-1.604-12.285-4.814-2.988-2.966-4.482-6.895-4.482-11.787v-32.539l6.309-2.988h.332v35.527c0 2.967.797 5.368 2.391 7.205 1.97 2.28 4.549 3.42 7.736 3.42s5.766-1.14 7.736-3.42c1.594-1.837 2.391-4.238 2.391-7.205v-32.539l6.309-2.988h.33zM468.467 54.985v-45.422h-14.211v-.332l2.689-5.711h32.373v.332l-2.689 5.711h-11.521v42.434l-6.309 2.988h-.332zM521.686 53.657v-48.476l3.52-1.66h12.584c5.047 0 9.142 1.605 12.285 4.814 2.988 3.033 4.482 6.962 4.482 11.787v16.934c0 4.804-1.494 8.732-4.482 11.787-3.144 3.21-7.238 4.814-12.285 4.814h-16.104zm6.64-5.976h9.463c3.188 0 5.766-1.14 7.736-3.42 1.594-1.837 2.391-4.238 2.391-7.205v-16.934c0-2.966-.797-5.367-2.391-7.205-1.971-2.279-4.549-3.42-7.736-3.42h-9.463v38.184zM567.838 53.657v-48.476l3.52-1.66h21.051v.332l-2.689 5.711h-15.24v16.004h17.93v.332l-2.689 5.711h-15.24v16.004h23.475v.332l-2.689 5.711h-27.429zM232.324 137.657v-61.308l4.451-2.1h15.915c4.73 0 8.664 1.288 11.8 3.863 3.723 3.023 5.585 6.901 5.585 11.632 0 4.815-2.128 8.818-6.383 12.01 1.371.588 2.729 1.47 4.073 2.646 4.087 3.724 6.131 8.343 6.131 13.857 0 5.543-1.792 10.093-5.375 13.647-3.836 3.836-9.112 5.753-15.831 5.753h-20.366zm8.399-38.885h11.968c2.799 0 5.053-.909 6.761-2.729 1.512-1.623 2.268-3.737 2.268-6.341 0-2.127-.91-4.045-2.729-5.753-1.624-1.428-3.724-2.142-6.299-2.142h-11.968v16.965zm0 31.327h11.968c4.227 0 7.586-1.329 10.078-3.989 1.819-1.932 2.729-4.479 2.729-7.643 0-3.275-.966-6.032-2.897-8.272-2.1-2.575-5.403-3.863-9.91-3.863h-11.968v23.767zM289.854 139.337v-62.988l7.979-3.779h.42v62.988l-7.979 3.779h-.42zM315.049 117.501v-23.096c0-6.074 1.89-11.044 5.669-14.907 3.975-4.059 9.154-6.089 15.537-6.089s11.562 2.03 15.537 6.089c3.779 3.836 5.669 8.805 5.669 14.907v23.096c0 6.075-1.89 11.044-5.669 14.907-3.976 4.06-9.154 6.089-15.537 6.089s-11.563-2.029-15.537-6.089c-3.78-3.863-5.669-8.832-5.669-14.907zm8.398 0c0 3.752 1.008 6.789 3.023 9.112 2.491 2.884 5.753 4.325 9.784 4.325s7.292-1.441 9.784-4.325c2.016-2.323 3.023-5.36 3.023-9.112v-23.096c0-3.751-1.008-6.788-3.023-9.112-2.492-2.883-5.753-4.325-9.784-4.325s-7.293 1.442-9.784 4.325c-2.016 2.324-3.023 5.361-3.023 9.112v23.096zM374.258 137.657v-61.308l7.979-3.779h.42v57.445h28.765v.42l-3.401 7.223h-33.763zM414.99 117.501v-23.096c0-6.074 1.89-11.044 5.669-14.907 3.975-4.059 9.154-6.089 15.537-6.089s11.562 2.03 15.537 6.089c3.779 3.836 5.669 8.805 5.669 14.907v23.096c0 6.075-1.89 11.044-5.669 14.907-3.976 4.06-9.154 6.089-15.537 6.089s-11.563-2.029-15.537-6.089c-3.779-3.863-5.669-8.832-5.669-14.907zm8.399 0c0 3.752 1.008 6.789 3.023 9.112 2.491 2.884 5.753 4.325 9.784 4.325s7.292-1.441 9.784-4.325c2.016-2.323 3.023-5.36 3.023-9.112v-23.096c0-3.751-1.008-6.788-3.023-9.112-2.492-2.883-5.753-4.325-9.784-4.325s-7.293 1.442-9.784 4.325c-2.016 2.324-3.023 5.361-3.023 9.112v23.096zM516.611 102.132v15.369c0 6.075-1.89 11.044-5.669 14.907-3.976 4.06-9.154 6.089-15.537 6.089s-11.563-2.029-15.537-6.089c-3.779-3.863-5.669-8.832-5.669-14.907v-23.096c0-6.074 1.89-11.044 5.669-14.907 3.975-4.059 9.154-6.089 15.537-6.089 6.606 0 11.793 2.03 15.558 6.089 3.766 4.06 5.648 8.749 5.648 14.067l-7.979 3.779h-.42v-2.939c0-3.751-1.008-6.788-3.023-9.112-2.492-2.883-5.753-4.325-9.784-4.325s-7.293 1.442-9.784 4.325c-2.016 2.324-3.023 5.361-3.023 9.112v23.096c0 3.752 1.008 6.789 3.023 9.112 2.491 2.884 5.753 4.325 9.784 4.325s7.292-1.441 9.784-4.325c2.016-2.323 3.023-5.081 3.023-8.272v-8.566h-14.612v-.42l3.401-7.223h19.61zM533.408 139.337v-62.988l7.979-3.779h.42v62.988l-7.979 3.779h-.42zM558.604 137.657v-61.308l4.451-2.1h26.623v.42l-3.401 7.223h-19.274v20.24h22.676v.42l-3.401 7.223h-19.274v20.24h29.688v.42l-3.401 7.223h-34.687zM229.395 202.751v-41.016l2.898-1.367h10.363c4.156 0 7.528 1.322 10.117 3.965 2.461 2.516 3.691 5.752 3.691 9.707 0 3.975-1.23 7.21-3.691 9.707-2.607 2.644-5.979 3.965-10.117 3.965h-7.793v12.578l-5.195 2.461h-.273zm5.468-19.961h7.793c2.388 0 4.512-.938 6.371-2.816 1.313-1.33 1.969-3.309 1.969-5.934 0-2.442-.656-4.42-1.969-5.934-1.623-1.877-3.746-2.816-6.371-2.816h-7.793v17.5zM264.668 202.751v-29.258c0-3.938 1.23-7.173 3.691-9.707 2.588-2.643 5.961-3.965 10.117-3.965 4.083 0 7.455 1.322 10.117 3.965 2.461 2.443 3.691 5.679 3.691 9.707v26.797l-5.195 2.461h-.273v-19.25h-16.68v16.789l-5.195 2.461h-.273zm5.469-24.227h16.68v-5.031c0-2.442-.656-4.42-1.969-5.934-1.623-1.877-3.746-2.816-6.371-2.816s-4.749.939-6.371 2.816c-1.313 1.514-1.969 3.491-1.969 5.934v5.031zM303.223 202.751v-41.016l2.898-1.367h10.363c4.156 0 7.528 1.322 10.117 3.965 2.461 2.516 3.691 5.752 3.691 9.707 0 3.976-1.231 7.213-3.695 9.712-1.459 1.478-3.165 2.544-5.118 3.2l9.47 13.529-4.813 2.27h-.274l-10.526-15.039h-6.645v12.578l-5.195 2.461h-.273zm5.468-19.961h7.793c2.388 0 4.512-.938 6.371-2.816 1.313-1.33 1.969-3.309 1.969-5.934 0-2.442-.656-4.42-1.969-5.934-1.623-1.877-3.746-2.816-6.371-2.816h-7.793v17.5zM340.52 202.751v-41.016l5.195-2.461h.273v41.016l-5.195 2.461h-.273zM383.422 188.751c0 3.719-1.222 6.882-3.664 9.488-2.498 2.644-5.87 3.965-10.117 3.965-4.248 0-7.62-1.321-10.117-3.965-2.461-2.606-3.691-5.66-3.691-9.16l5.195-2.461h.273v2.242c0 2.225.656 4.093 1.969 5.605 1.622 1.878 3.746 2.816 6.371 2.816 2.606 0 4.73-.938 6.371-2.816 1.294-1.477 1.941-3.363 1.941-5.66 0-2.169-.529-3.873-1.586-5.113-1.459-1.713-3.701-2.57-6.727-2.57-3.318 0-6.189-1.094-8.613-3.281-1.823-1.641-2.734-4.02-2.734-7.137 0-3.664 1.13-6.416 3.391-8.258 2.15-1.75 4.803-2.625 7.957-2.625 3.153 0 5.806.875 7.957 2.625 2.26 1.842 3.391 4.366 3.391 7.574l-5.195 2.461h-.273v-2.188c0-2.078-.593-3.627-1.777-4.648-1.148-1.002-2.516-1.504-4.102-1.504-1.769 0-3.19.557-4.266 1.668-1.076 1.112-1.613 2.607-1.613 4.484 0 1.805.41 3.163 1.23 4.074 1.094 1.222 2.643 1.832 4.648 1.832 4.411 0 7.783 1.039 10.117 3.117 2.442 2.171 3.664 5.316 3.664 9.435zM476.977 188.751c0 3.719-1.222 6.882-3.664 9.488-2.498 2.644-5.87 3.965-10.117 3.965-4.248 0-7.62-1.321-10.117-3.965-2.461-2.606-3.691-5.66-3.691-9.16l5.195-2.461h.273v2.242c0 2.225.656 4.093 1.969 5.605 1.622 1.878 3.746 2.816 6.371 2.816 2.606 0 4.73-.938 6.371-2.816 1.294-1.477 1.941-3.363 1.941-5.66 0-2.169-.529-3.873-1.586-5.113-1.459-1.713-3.701-2.57-6.727-2.57-3.318 0-6.189-1.094-8.613-3.281-1.823-1.641-2.734-4.02-2.734-7.137 0-3.664 1.13-6.416 3.391-8.258 2.15-1.75 4.803-2.625 7.957-2.625 3.153 0 5.806.875 7.957 2.625 2.26 1.842 3.391 4.366 3.391 7.574l-5.195 2.461h-.273v-2.188c0-2.078-.593-3.627-1.777-4.648-1.148-1.002-2.516-1.504-4.102-1.504-1.769 0-3.19.557-4.266 1.668-1.076 1.112-1.613 2.607-1.613 4.484 0 1.805.41 3.163 1.23 4.074 1.094 1.222 2.643 1.832 4.648 1.832 4.411 0 7.783 1.039 10.117 3.117 2.442 2.171 3.664 5.316 3.664 9.435zM486.848 201.657v-39.922l2.898-1.367h17.336v.273l-2.215 4.703h-12.551v13.18h14.766v.273l-2.215 4.703h-12.551v13.18h19.332v.273l-2.215 4.703h-22.585zM518.484 202.751v-41.016l5.195-2.461h.273v41.016l-5.195 2.461h-.273zM534.891 202.751v-29.258c0-3.938 1.23-7.173 3.691-9.707 2.588-2.643 5.961-3.965 10.117-3.965 4.102 0 7.474 1.322 10.117 3.965 2.461 2.443 3.691 5.679 3.691 9.707v26.797l-5.195 2.461h-.273v-29.258c0-2.442-.656-4.42-1.969-5.934-1.623-1.877-3.746-2.816-6.371-2.816s-4.749.939-6.371 2.816c-1.313 1.514-1.969 3.491-1.969 5.934v26.797l-5.195 2.461h-.273zM573.445 201.657v-39.922l2.898-1.367h17.336v.273l-2.215 4.703h-12.551v13.18h14.766v.273l-2.215 4.703h-12.551v13.18h19.332v.273l-2.215 4.703h-22.585z"/></g><rect x="1.241" y="1.182" fill="#18385F" width="188.685" height="202.841"/><rect x="128.989" y="75.417" fill="#99CA3C" width="22.845" height="22.25"/><rect x="405.989" y="170.417" fill="#99CA3C" width="22.845" height="22.25"/><path fill="#fff" d="M31.916 0c-2.271 3.698-5.055 7.388-7.153 11.087-4.525 7.981-8.564 15.867-12.185 23.562-3.62 7.695-6.798 15.228-9.513 22.638-1.227 3.351-2.022 6.562-3.065 9.855v86.545c1.572 2.596 3.03 5.254 5.031 7.469 2.426 2.688 4.969 4.818 7.625 6.393 2.656 1.572 5.368 2.619 8.255 3.078 2.887.461 5.923.348 9.04-.307s6.321-1.852 9.669-3.619c3.348-1.77 6.947-4.17 10.691-7.16s7.651-6.568 11.792-10.781c4.141-4.211 8.512-9.041 13.05-14.475 4.537-5.434 9.216-11.439 14.149-18.094l15.486-20.713c6.856-9.305 12.965-16.807 18.475-22.561 2.754-2.877 5.364-5.324 7.782-7.315 2.418-1.989 4.679-3.517 6.761-4.62 2.081-1.102 4.146-1.876 6.132-2.232 1.985-.357 3.927-.313 5.816.077 1.891.39 3.71 1.175 5.503 2.31 1.794 1.135 3.569 2.585 5.268 4.466 1.864 2.067 3.332 4.409 4.56 7.007 1.227 2.598 2.162 5.494 2.751 8.625.589 3.129.835 6.502.786 10.162-.049 3.662-.414 7.59-1.101 11.781-.687 4.193-1.617 8.576-2.908 13.09-1.292 4.514-2.899 9.18-4.796 14.014-3.791 9.668-8.805 19.924-15.015 30.875-4.222 7.445-8.657 14.586-13.364 21.406-4.706 6.82-9.666 13.363-14.857 19.557-1.07 1.279-2.353 2.504-3.459 3.773h29.008c1.389-2.076 2.888-4.053 4.245-6.16 4.623-7.174 9.103-14.506 13.364-22.021 5.114-9.018 9.676-17.764 13.757-26.178 4.081-8.416 7.644-16.52 10.691-24.332 2.515-6.447 4.478-12.52 6.289-18.557v-74.613c-2.107-4.04-4.663-7.795-7.704-11.164-2.744-3.04-5.547-5.453-8.49-7.314-2.943-1.862-5.977-3.166-9.119-3.85-3.142-.685-6.406-.803-9.748-.309-3.341.494-6.758 1.639-10.298 3.311-3.54 1.673-7.257 3.926-11.163 6.854s-7.99 6.52-12.263 10.702-8.726 8.961-13.364 14.398c-4.639 5.438-9.46 11.479-14.465 18.172l-15.093 20.405c-7.108 9.488-13.418 17.123-18.866 22.945-2.725 2.91-5.237 5.32-7.547 7.314s-4.395 3.543-6.289 4.619c-1.895 1.078-3.785 1.842-5.581 2.232-1.796.393-3.491.447-5.188.154-1.698-.293-3.354-.947-4.953-1.924-1.599-.979-3.137-2.264-4.638-3.928-1.713-1.898-3.129-4.1-4.245-6.545-1.115-2.445-1.997-5.168-2.516-8.162-.519-2.992-.708-6.238-.629-9.777.079-3.541.503-7.385 1.18-11.473.676-4.088 1.597-8.283 2.83-12.629 1.232-4.345 2.77-8.795 4.559-13.397 3.579-9.205 8.268-18.946 14.072-29.182 3.815-6.729 7.787-13.155 12.027-19.327 1.473-2.142 3.113-4.08 4.637-6.157h-25.706z"/></svg>