<?xml version="1.0" encoding="UTF-8" standalone="no"?>
<!-- Created with Inkscape (http://www.inkscape.org/) -->

<svg
   xmlns:dc="http://purl.org/dc/elements/1.1/"
   xmlns:cc="http://creativecommons.org/ns#"
   xmlns:rdf="http://www.w3.org/1999/02/22-rdf-syntax-ns#"
   xmlns:svg="http://www.w3.org/2000/svg"
   xmlns="http://www.w3.org/2000/svg"
   xmlns:sodipodi="http://sodipodi.sourceforge.net/DTD/sodipodi-0.dtd"
   xmlns:inkscape="http://www.inkscape.org/namespaces/inkscape"
   width="584"
   height="97"
   id="svg2"
   version="1.1"
   inkscape:version="0.48.4 r9939"
   sodipodi:docname="masstor2.svg">
  <defs
     id="defs4" />
  <sodipodi:namedview
     id="base"
     pagecolor="#ffffff"
     bordercolor="#666666"
     borderopacity="1.0"
     inkscape:pageopacity="0.0"
     inkscape:pageshadow="2"
     inkscape:zoom="0.98994949"
     inkscape:cx="168.56349"
     inkscape:cy="-15.193919"
     inkscape:document-units="px"
     inkscape:current-layer="layer1"
     showgrid="false"
     inkscape:window-width="1873"
     inkscape:window-height="1176"
     inkscape:window-x="47"
     inkscape:window-y="24"
     inkscape:window-maximized="1"
     showguides="true"
     inkscape:guide-bbox="true"
     fit-margin-top="0"
     fit-margin-left="0"
     fit-margin-right="0"
     fit-margin-bottom="0" />
  <metadata
     id="metadata7">
    <rdf:RDF>
      <cc:Work
         rdf:about="">
        <dc:format>image/svg+xml</dc:format>
        <dc:type
           rdf:resource="http://purl.org/dc/dcmitype/StillImage" />
        <dc:title></dc:title>
      </cc:Work>
    </rdf:RDF>
  </metadata>
  <g
     inkscape:label="Calque 1"
     inkscape:groupmode="layer"
     id="layer1"
     transform="translate(-110.18304,-55.968748)">
    <g
       id="g4563"
       transform="matrix(1.2858505,0,0,1.0496618,-31.495879,-7.5967094)">
      <path
         inkscape:connector-curvature="0"
         id="path4543"
         d="m 460.45089,125.33482 c 1.45198,4.99791 3.85125,9.38798 7.46875,13.03125 4.92162,4.91424 11.36943,7.375 19.34375,7.375 4.31938,0 8.1833,-0.68588 11.59375,-2.0625 l -38.40625,-18.34375 z"
         style="font-size:105.41537476px;font-style:normal;font-variant:normal;font-weight:normal;font-stretch:normal;text-align:start;line-height:125%;letter-spacing:0px;word-spacing:0px;writing-mode:lr-tb;text-anchor:start;fill:#000000;fill-opacity:1;stroke:none;font-family:Arial Black;-inkscape-font-specification:'Arial Black,'" />
      <path
         inkscape:connector-curvature="0"
         id="path4541"
         d="m 460.45089,117.47768 38.40625,18.34375 c 3.64821,-1.4726 6.79812,-3.73338 9.40625,-6.78125 5.07733,-5.93488 7.59369,-13.51978 7.59375,-22.78125 -6e-5,-8.240761 -2.01321,-15.179981 -6.09375,-20.812501 -5.07743,-6.993284 -12.59457,-10.499938 -22.53125,-10.5 -8.69076,6.2e-5 -15.57898,2.996116 -20.6875,8.96875 -5.10854,5.93494 -7.6875,13.50169 -7.6875,22.687501 0,3.9601 0.6202,7.5239 1.59375,10.875 z m 94.71875,-42.531251 c -2.6789,6.2e-5 -4.94345,0.812081 -6.78125,2.4375 -1.8067,1.587735 -3.56805,4.540946 -5.28125,8.8125 l 0,-9.875 -17.78125,0 0,60.218751 19.09375,0 0,-20.1875 c -3e-5,-9.63944 0.97505,-16.23439 2.9375,-19.750001 1.37055,-2.49488 3.3205,-3.71871 5.8125,-3.71875 1.30825,4e-5 3.06969,0.55349 5.3125,1.6875 l 5.875,-16.4375 c -3.33305,-2.116843 -6.38407,-3.187438 -9.1875,-3.1875 z m -67.65625,15.875 c 2.61653,5e-5 4.81819,1.30452 6.59375,3.875 1.77549,2.53276 2.65621,6.408381 2.65625,11.625001 -4e-5,5.5947 -0.88076,9.6548 -2.65625,12.1875 -1.74441,2.53274 -4.00887,3.78126 -6.75,3.78125 -2.71004,10e-6 -4.94335,-1.27321 -6.75,-3.84375 -1.77555,-2.57051 -2.68752,-6.53836 -2.6875,-11.90625 -2e-5,-5.29222 0.91205,-9.210681 2.71875,-11.781251 1.80665,-2.60828 4.10266,-3.93745 6.875,-3.9375 z"
         style="font-size:105.41537476px;font-style:normal;font-variant:normal;font-weight:normal;font-stretch:normal;text-align:start;line-height:125%;letter-spacing:0px;word-spacing:0px;writing-mode:lr-tb;text-anchor:start;fill:#000000;fill-opacity:1;stroke:none;font-family:Arial Black;-inkscape-font-specification:'Arial Black,'" />
      <path
         inkscape:connector-curvature="0"
         id="path4539"
         d="m 413.38393,110.875 0,14.90625 c -1e-5,6.72874 0.5034,11.60086 1.5625,14.625 1.09022,2.98635 2.75722,5.24448 5,6.71875 2.24275,1.47427 5.73399,2.1875 10.46875,2.1875 4.08057,0 8.48388,-0.62754 13.1875,-1.875 l -1.40625,-15.90625 c -2.52315,0.98286 -4.4733,1.46876 -5.875,1.46875 -1.55751,1e-5 -2.65829,-0.65222 -3.28125,-1.9375 -0.40497,-0.83162 -0.59378,-2.5232 -0.59375,-5.09375 l 0,-6 -19.0625,-9.09375 z"
         style="font-size:105.41537476px;font-style:normal;font-variant:normal;font-weight:normal;font-stretch:normal;text-align:start;line-height:125%;letter-spacing:0px;word-spacing:0px;writing-mode:lr-tb;text-anchor:start;fill:#000000;fill-opacity:1;stroke:none;font-family:Arial Black;-inkscape-font-specification:'Arial Black,'" />
      <path
         inkscape:connector-curvature="0"
         id="path4537"
         d="m 413.38393,106.58929 19.0625,9.09375 0,-15.375 10.46875,0 0,-16.843754 -10.46875,0 0,-22.90625 -19.0625,11.84375 0,11.0625 -7.03125,0 0,16.843754 7.03125,0 0,6.28125 z"
         style="font-size:105.41537476px;font-style:normal;font-variant:normal;font-weight:normal;font-stretch:normal;text-align:start;line-height:125%;letter-spacing:0px;word-spacing:0px;writing-mode:lr-tb;text-anchor:start;fill:#000000;fill-opacity:1;stroke:none;font-family:Arial Black;-inkscape-font-specification:'Arial Black,'" />
      <path
         inkscape:connector-curvature="0"
         id="path4535"
         d="m 333.62946,80.075893 c -1.52335,3.335476 -2.43751,6.82614 -2.4375,10.53125 -10e-6,6.501972 1.98159,11.835297 5.96875,16.031247 3.95598,4.19605 10.5924,7.56106 19.875,10.09375 5.66919,1.51211 9.28623,3.1427 10.84375,4.84375 1.55744,1.70111 2.34371,3.62657 2.34375,5.78125 -4e-5,2.26813 -0.84912,4.26113 -2.5,6 -1.61982,1.7011 -3.91603,2.56251 -6.9375,2.5625 -4.04948,1e-5 -7.16331,-1.69812 -9.34375,-5.0625 -1.33946,-2.07908 -2.25143,-5.09328 -2.6875,-9.0625 l -20.125,1.53125 c 0.59184,8.39203 3.13945,15.30655 7.625,20.75 4.48553,5.44347 12.53753,8.15625 24.1875,8.15625 6.63482,0 12.13901,-1.16284 16.5,-3.46875 4.36089,-2.34371 7.75777,-5.75157 10.1875,-10.25 2.4296,-4.4984 3.62493,-9.41992 3.625,-14.75 -7e-5,-4.53619 -0.91224,-8.61443 -2.75,-12.28125 -1.80674,-3.66674 -4.70051,-6.73033 -8.71875,-9.1875 -3.9872,-2.494868 -10.62361,-4.955625 -19.875,-7.374997 -3.73798,-0.944989 -6.09699,-1.966188 -7.09375,-3.0625 -1.02796,-1.058392 -1.53128,-2.270624 -1.53125,-3.59375 l -17.15625,-8.1875 z"
         style="font-size:105.41537476px;font-style:normal;font-variant:normal;font-weight:normal;font-stretch:normal;text-align:start;line-height:125%;letter-spacing:0px;word-spacing:0px;writing-mode:lr-tb;text-anchor:start;fill:#000000;fill-opacity:1;stroke:none;font-family:Arial Black;-inkscape-font-specification:'Arial Black,'" />
      <path
         inkscape:connector-curvature="0"
         id="path4533"
         d="m 336.48661,75.790179 17.15625,8.1875 c -3e-5,-1.814424 0.59774,-3.346223 1.84375,-4.59375 1.24596,-1.285194 3.10165,-1.906181 5.5625,-1.90625 2.99033,6.9e-5 5.34913,0.830235 7.03125,2.53125 1.71319,1.701148 2.81416,4.445179 3.34375,8.1875 l 19.96875,-1.4375 c -0.87225,-8.618754 -3.60867,-14.881033 -8.21875,-18.8125 -4.57904,-3.969112 -11.24701,-5.968665 -20,-5.96875 -7.13329,8.5e-5 -12.76328,1.120076 -16.875,3.3125 -4.08061,2.154785 -7.16289,5.119589 -9.21875,8.9375 -0.26849,0.501286 -0.36086,1.052575 -0.59375,1.5625 z"
         style="font-size:105.41537476px;font-style:normal;font-variant:normal;font-weight:normal;font-stretch:normal;text-align:start;line-height:125%;letter-spacing:0px;word-spacing:0px;writing-mode:lr-tb;text-anchor:start;fill:#000000;fill-opacity:1;stroke:none;font-family:Arial Black;-inkscape-font-specification:'Arial Black,'" />
      <path
         id="path4531"
         d="m 344.59375,85.25 -2.03125,3.125 2.53125,-0.1875 c -0.10682,-1.055506 -0.33712,-1.952294 -0.5,-2.9375 z"
         style="font-size:105.41537476px;font-style:normal;font-variant:normal;font-weight:normal;font-stretch:normal;text-align:start;line-height:125%;letter-spacing:0px;word-spacing:0px;writing-mode:lr-tb;text-anchor:start;fill:#000000;fill-opacity:1;stroke:none;font-family:Arial Black;-inkscape-font-specification:'Arial Black,'"
         inkscape:connector-curvature="0" />
      <path
         inkscape:connector-curvature="0"
         id="path4529"
         d="m 293.87054,120.04911 12.25,-18.65625 c -4.01789,-2.4254 -10.43637,-4.833576 -19.4375,-7.187503 -3.73798,-0.944989 -6.09699,-1.966188 -7.09375,-3.0625 -1.02796,-1.058392 -1.53128,-2.270624 -1.53125,-3.59375 -3e-5,-1.814424 0.62899,-3.346223 1.875,-4.59375 1.24596,-1.285194 3.0704,-1.906181 5.53125,-1.90625 2.99033,6.9e-5 5.34913,0.830235 7.03125,2.53125 1.71319,1.701148 2.81416,4.445179 3.34375,8.1875 l 17.4375,-1.25 2.03125,-3.125 c -1.16713,-7.059511 -3.67325,-12.425005 -7.71875,-15.875 -4.57904,-3.969112 -11.24701,-5.968665 -20,-5.96875 -7.13329,8.5e-5 -12.76328,1.120076 -16.875,3.3125 -4.08061,2.154785 -7.16289,5.119589 -9.21875,8.9375 -2.02473,3.780254 -3.03126,7.822205 -3.03125,12.09375 -1e-5,6.501972 2.01284,11.835293 6,16.031253 3.95598,4.19605 10.56115,7.56106 19.84375,10.09375 4.73665,1.26338 7.69609,2.63598 9.5625,4.03125 z"
         style="font-size:105.41537476px;font-style:normal;font-variant:normal;font-weight:normal;font-stretch:normal;text-align:start;line-height:125%;letter-spacing:0px;word-spacing:0px;writing-mode:lr-tb;text-anchor:start;fill:#000000;fill-opacity:1;stroke:none;font-family:Arial Black;-inkscape-font-specification:'Arial Black,'" />
      <path
         inkscape:connector-curvature="0"
         id="path4527"
         d="m 280.73661,150.51339 c 3.78566,1.09665 8.17723,1.71875 13.40625,1.71875 6.63482,0 12.13901,-1.16284 16.5,-3.46875 4.36089,-2.34371 7.75777,-5.75157 10.1875,-10.25 2.4296,-4.4984 3.65618,-9.41992 3.65625,-14.75 -7e-5,-4.53619 -0.94349,-8.61443 -2.78125,-12.28125 -1.80674,-3.66674 -4.70051,-6.73033 -8.71875,-9.1875 -0.10785,-0.0675 -0.32579,-0.12007 -0.4375,-0.1875 l -12.25,18.65625 c 0.36745,0.2747 1.02505,0.53269 1.28125,0.8125 1.55744,1.70111 2.34371,3.62657 2.34375,5.78125 -4e-5,2.26813 -0.84912,4.26113 -2.5,6 -1.61982,1.7011 -3.91603,2.56251 -6.9375,2.5625 -1.36734,1e-5 -2.59576,-0.27267 -3.75,-0.65625 l -10,15.25 z"
         style="font-size:105.41537476px;font-style:normal;font-variant:normal;font-weight:normal;font-stretch:normal;text-align:start;line-height:125%;letter-spacing:0px;word-spacing:0px;writing-mode:lr-tb;text-anchor:start;fill:#000000;fill-opacity:1;stroke:none;font-family:Arial Black;-inkscape-font-specification:'Arial Black,'" />
      <path
         inkscape:connector-curvature="0"
         id="path4525"
         d="m 276.45089,151.94196 10,-15.25 c -2.26414,-0.75242 -4.14955,-2.17788 -5.59375,-4.40625 -1.33946,-2.07908 -2.25143,-5.09328 -2.6875,-9.0625 l -20.125,1.53125 c 0.59184,8.39203 3.13945,15.30655 7.625,20.75 2.47222,3.0002 6.13267,5.09088 10.78125,6.4375 z"
         style="font-size:105.41537476px;font-style:normal;font-variant:normal;font-weight:normal;font-stretch:normal;text-align:start;line-height:125%;letter-spacing:0px;word-spacing:0px;writing-mode:lr-tb;text-anchor:start;fill:#000000;fill-opacity:1;stroke:none;font-family:Arial Black;-inkscape-font-specification:'Arial Black,'" />
      <path
         inkscape:connector-curvature="0"
         id="path4523"
         d="m 200.22768,131.36607 c -0.0621,0.72092 -0.28125,1.32718 -0.28125,2.09375 0,4.87645 1.50983,8.98594 4.5625,12.3125 2.20758,2.38137 5.18352,3.85462 8.84375,4.53125 -0.45909,-0.68038 -0.785,-1.18816 -1.25,-1.875 -3.68819,-5.44774 -7.87835,-11.33116 -11.875,-17.0625 z"
         style="font-size:105.41537476px;font-style:normal;font-variant:normal;font-weight:normal;font-stretch:normal;text-align:start;line-height:125%;letter-spacing:0px;word-spacing:0px;writing-mode:lr-tb;text-anchor:start;fill:#000000;fill-opacity:1;stroke:none;font-family:Arial Black;-inkscape-font-specification:'Arial Black,'" />
      <path
         inkscape:connector-curvature="0"
         id="path4521"
         d="m 198.08482,124.22321 c 3.99665,5.73134 8.18681,11.61476 11.875,17.0625 0.465,0.68684 0.79091,1.19462 1.25,1.875 1.45279,0.26856 2.97461,0.4375 4.65625,0.4375 4.45437,0 8.38581,-0.80547 11.75,-2.46875 2.46078,-1.24746 4.91424,-3.33925 7.40625,-6.25 0.21801,1.73889 0.43816,3.01211 0.65625,3.84375 0.21801,0.79384 0.68977,1.98138 1.40625,3.53125 l 17.84375,0 c -0.99685,-2.49492 -1.65731,-4.53732 -1.96875,-6.125 -0.2804,-1.62547 -0.40631,-3.85235 -0.40625,-6.6875 l 0,-26.59375 c -6e-5,-2.8351 -0.47182,-5.806446 -1.40625,-8.906246 -0.93454,-3.137502 -2.22403,-5.548863 -3.84375,-7.25 -2.30512,-2.457062 -5.16744,-4.087653 -8.625,-4.84375 -3.45765,-0.793778 -8.04966,-1.187438 -13.75,-1.1875 -3.55108,6.2e-5 -6.85361,0.32618 -9.90625,0.96875 -3.05268,0.642691 -5.44314,1.546952 -7.1875,2.71875 -2.42968,1.625536 -4.28548,3.550995 -5.59375,5.78125 -1.27714,2.192557 -2.28346,5.23801 -2.96875,9.09375 l 18.1875,2.312496 c 0.74757,-2.608276 1.72264,-4.398656 2.9375,-5.343746 1.55745,-1.20961 3.91626,-1.81245 7.03125,-1.8125 2.42963,5e-5 4.12808,0.58474 5.09375,1.71875 0.9656,1.1341 1.43746,3.1024 1.4375,5.937496 -2.36741,1.13409 -4.60061,2.06305 -6.71875,2.78125 -2.1182,0.68047 -6.77302,1.88615 -13.90625,3.625 -5.94959,1.4365 -10.00714,3.64524 -12.21875,6.59375 -1.84097,2.45441 -2.72272,5.60682 -3.03125,9.1875 z m 35.875,-10.5625 0,3.6875 c -4e-5,2.87296 -0.4088,5.21678 -1.1875,7.03125 -0.74763,1.7767 -2.03721,3.2838 -3.875,4.53125 -1.80671,1.24747 -3.75686,1.87501 -5.875,1.875 -2.02475,1e-5 -3.56594,-0.55343 -4.625,-1.6875 -1.02796,-1.17184 -1.53127,-2.65425 -1.53125,-4.46875 -2e-5,-1.58766 0.50339,-3.03377 1.5625,-4.28125 1.02791,-1.20964 3.48117,-2.44001 7.34375,-3.6875 2.83458,-0.86942 5.5709,-1.86592 8.1875,-3 z"
         style="font-size:105.41537476px;font-style:normal;font-variant:normal;font-weight:normal;font-stretch:normal;text-align:start;line-height:125%;letter-spacing:0px;word-spacing:0px;writing-mode:lr-tb;text-anchor:start;fill:#000000;fill-opacity:1;stroke:none;font-family:Arial Black;-inkscape-font-specification:'Arial Black,'" />
      <path
         inkscape:connector-curvature="0"
         id="path4519"
         d="m 171.36161,97.3125 0,55.65625 17.28125,0 0,-32.59375 c -5.65573,-7.86486 -11.4757,-15.49034 -17.28125,-23.0625 z"
         style="font-size:105.41537476px;font-style:normal;font-variant:normal;font-weight:normal;font-stretch:normal;text-align:start;line-height:125%;letter-spacing:0px;word-spacing:0px;writing-mode:lr-tb;text-anchor:start;fill:#000000;fill-opacity:1;stroke:none;font-family:Arial Black;-inkscape-font-specification:'Arial Black,'" />
      <path
         inkscape:connector-curvature="0"
         id="path4517"
         d="m 157.12054,80.96875 -8.34375,39.4375 -10.75,-50.5625 -27.84375,0 0,83.125 17.3125,0 0,-63.40625 13.375,63.40625 15.65625,0 12.125,-57.375 c -1.51088,-1.959318 -2.99226,-4.086428 -4.5,-6 -2.35912,-2.994106 -4.69522,-5.772949 -7.03125,-8.625 z"
         style="font-size:105.41537476px;font-style:normal;font-variant:normal;font-weight:normal;font-stretch:normal;text-align:start;line-height:125%;letter-spacing:0px;word-spacing:0px;writing-mode:lr-tb;text-anchor:start;fill:#000000;fill-opacity:1;stroke:none;font-family:Arial Black;-inkscape-font-specification:'Arial Black,'" />
      <path
         inkscape:connector-curvature="0"
         id="text2985"
         d="m 159.97768,76.683036 c 2.33603,2.852051 4.67213,5.630894 7.03125,8.625 1.50774,1.913572 2.98912,4.040682 4.5,6 l 1.28125,-6.03125 0,7.75 c 5.80555,7.572164 11.62552,15.197644 17.28125,23.062504 l 0,-50.531254 -27.75,0 -2.34375,11.125 z"
         style="font-size:105.41537476px;font-style:normal;font-variant:normal;font-weight:normal;font-stretch:normal;text-align:start;line-height:125%;letter-spacing:0px;word-spacing:0px;writing-mode:lr-tb;text-anchor:start;fill:#000000;fill-opacity:1;stroke:none;font-family:Arial Black;-inkscape-font-specification:'Arial Black,'" />
    </g>
    <flowRoot
       xml:space="preserve"
       id="flowRoot2989"
       style="font-size:40px;font-style:normal;font-weight:normal;line-height:125%;letter-spacing:0px;word-spacing:0px;fill:#000000;fill-opacity:1;stroke:none;font-family:Sans"><flowRegion
         id="flowRegion2991"><rect
           id="rect2993"
           width="61.619305"
           height="118.18785"
           x="88.893425"
           y="357.37723" /></flowRegion><flowPara
         id="flowPara2995"></flowPara></flowRoot>  </g>
</svg>
